ffmpeg started on 2025-06-19 at 09:42:13
Report written to "D:\Convert\FFMetrics\reports\ssim_report-6.txt"
Log level: 32
Command line:
ffmpeg -hide_banner -nostdin -i "G:\\\xc0\xed\xe8\xec\xe5\\[\xd2\xee\xef-4]\\Fate\\\xc4\xee\xef\xee\xeb\xed\xe5\xed\xe8\xe5 - \xcf\xee\xf1\xeb\xe5\xe4\xed\xe8\xe9 \xe2\xfb\xe7\xee\xe2 \xed\xe0 \xe1\xe8\xf1\\Fate_Extra_Last_Encore_[05]_[AniLibria_TV]_[HDTV-Rip_720p]_HEVC.mkv" -i "G:\\\xc0\xed\xe8\xec\xe5\\[\xd2\xee\xef-4]\\Fate\\\xc4\xee\xef\xee\xeb\xed\xe5\xed\xe8\xe5 - \xcf\xee\xf1\xeb\xe5\xe4\xed\xe8\xe9 \xe2\xfb\xe7\xee\xe2 \xed\xe0 \xe1\xe8\xf1\\Fate_Extra_Last_Encore_[05]_[AniLibria_TV]_[HDTV-Rip_720p].mkv" -lavfi "[0:v]settb=AVTB,setpts=PTS-STARTPTS,format=pix_fmts=yuv420p10,fps=24000/1001,scale=1280:720:flags=bicubic[main];[1:v]settb=AVTB,setpts=PTS-STARTPTS,format=pix_fmts=yuv420p,fps=24000/1001,scale=1280:720:flags=bicubic[ref];[main][ref]ssim=eof_action=endall:stats_file='D\\:/Convert/FFMetrics/logs/ssim_logfile-6.txt'" -f null -
Input #0, matroska,webm, from 'G:\Аниме\[Топ-4]\Fate\Дополнение - Последний вызов на бис\Fate_Extra_Last_Encore_[05]_[AniLibria_TV]_[HDTV-Rip_720p]_HEVC.mkv':
  Metadata:
    ENCODER         : Lavf61.7.100
  Duration: 00:24:00.17, start: -0.021000, bitrate: 1719 kb/s
  Stream #0:0(jpn): Video: hevc (Main 10), yuv420p10le(tv, bt709, progressive), 1280x720 [SAR 1:1 DAR 16:9], 23.81 fps, 23.81 tbr, 1k tbn (default)
      Metadata:
        ENCODER         : Lavc61.19.100 libx265
        BPS             : 1520765
        DURATION        : 00:24:00.054000000
        NUMBER_OF_FRAMES: 34526
        NUMBER_OF_BYTES : 273747967
        _STATISTICS_WRITING_APP: mkvpropedit v66.0.0 ('Josie') 64-bit
        _STATISTICS_WRITING_DATE_UTC: 2025-06-17 12:22:54
        _STATISTICS_TAGS: BPS DURATION NUMBER_OF_FRAMES NUMBER_OF_BYTES
  Stream #0:1(rus): Audio: aac (LC), 48000 Hz, stereo, fltp (default)
      Metadata:
        title           : Ados Amikiri Anzen Hekomi Silv
        ENCODER         : Lavc61.19.100 aac
        BPS             : 194038
        DURATION        : 00:24:00.149000000
        NUMBER_OF_FRAMES: 67508
        NUMBER_OF_BYTES : 34930537
        _STATISTICS_WRITING_APP: mkvpropedit v66.0.0 ('Josie') 64-bit
        _STATISTICS_WRITING_DATE_UTC: 2025-06-17 12:22:54
        _STATISTICS_TAGS: BPS DURATION NUMBER_OF_FRAMES NUMBER_OF_BYTES
  Stream #0:2(rus): Subtitle: ass (ssa) (default) (forced)
      Metadata:
        title           : Надписи
        BPS             : 17
        DURATION        : 00:21:50.330000000
        NUMBER_OF_FRAMES: 15
        NUMBER_OF_BYTES : 2786
        _STATISTICS_WRITING_APP: mkvpropedit v66.0.0 ('Josie') 64-bit
        _STATISTICS_WRITING_DATE_UTC: 2025-06-17 12:22:54
        _STATISTICS_TAGS: BPS DURATION NUMBER_OF_FRAMES NUMBER_OF_BYTES
  Stream #0:3(rus): Subtitle: ass (ssa)
      Metadata:
        title           : Полные
        BPS             : 152
        DURATION        : 00:23:42.400000000
        NUMBER_OF_FRAMES: 330
        NUMBER_OF_BYTES : 27177
        _STATISTICS_WRITING_APP: mkvpropedit v66.0.0 ('Josie') 64-bit
        _STATISTICS_WRITING_DATE_UTC: 2025-06-17 12:22:54
        _STATISTICS_TAGS: BPS DURATION NUMBER_OF_FRAMES NUMBER_OF_BYTES
Input #1, matroska,webm, from 'G:\Аниме\[Топ-4]\Fate\Дополнение - Последний вызов на бис\Fate_Extra_Last_Encore_[05]_[AniLibria_TV]_[HDTV-Rip_720p].mkv':
  Metadata:
    encoder         : libebml v1.4.2 + libmatroska v1.6.4
    creation_time   : 2024-12-27T09:57:19.000000Z
  Duration: 00:24:00.15, start: 0.000000, bitrate: 3491 kb/s
  Stream #1:0(jpn): Video: h264 (Main), yuv420p(tv, bt709, progressive), 1280x720, SAR 1:1 DAR 16:9, 23.81 fps, 23.81 tbr, 1k tbn (default)
      Metadata:
        BPS             : 3285818
        DURATION        : 00:24:00.067000000
        NUMBER_OF_FRAMES: 34526
        NUMBER_OF_BYTES : 591474880
        _STATISTICS_WRITING_APP: mkvmerge v66.0.0 ('Josie') 64-bit
        _STATISTICS_WRITING_DATE_UTC: 2024-12-27 09:57:19
        _STATISTICS_TAGS: BPS DURATION NUMBER_OF_FRAMES NUMBER_OF_BYTES
  Stream #1:1(rus): Audio: aac (LC), 48000 Hz, stereo, fltp (default)
      Metadata:
        title           : Ados Amikiri Anzen Hekomi Silv
        BPS             : 192092
        DURATION        : 00:24:00.149000000
        NUMBER_OF_FRAMES: 67507
        NUMBER_OF_BYTES : 34580235
        _STATISTICS_WRITING_APP: mkvmerge v66.0.0 ('Josie') 64-bit
        _STATISTICS_WRITING_DATE_UTC: 2024-12-27 09:57:19
        _STATISTICS_TAGS: BPS DURATION NUMBER_OF_FRAMES NUMBER_OF_BYTES
  Stream #1:2(rus): Subtitle: ass (ssa) (default) (forced)
      Metadata:
        title           : Надписи
        BPS             : 17
        DURATION        : 00:21:50.330000000
        NUMBER_OF_FRAMES: 15
        NUMBER_OF_BYTES : 2786
        _STATISTICS_WRITING_APP: mkvmerge v66.0.0 ('Josie') 64-bit
        _STATISTICS_WRITING_DATE_UTC: 2024-12-27 09:57:19
        _STATISTICS_TAGS: BPS DURATION NUMBER_OF_FRAMES NUMBER_OF_BYTES
  Stream #1:3(rus): Subtitle: ass (ssa)
      Metadata:
        title           : Полные
        BPS             : 152
        DURATION        : 00:23:42.400000000
        NUMBER_OF_FRAMES: 330
        NUMBER_OF_BYTES : 27177
        _STATISTICS_WRITING_APP: mkvmerge v66.0.0 ('Josie') 64-bit
        _STATISTICS_WRITING_DATE_UTC: 2024-12-27 09:57:19
        _STATISTICS_TAGS: BPS DURATION NUMBER_OF_FRAMES NUMBER_OF_BYTES
  Stream #1:4: Attachment: ttf
      Metadata:
        filename        : KozGoPr6N-Medium_0.otf
        mimetype        : application/x-truetype-font
  Stream #1:5: Attachment: ttf
      Metadata:
        filename        : 9511(1).ttf
        mimetype        : application/x-truetype-font
  Stream #1:6: Attachment: ttf
      Metadata:
        filename        : arx.ttf
        mimetype        : application/x-truetype-font
  Stream #1:7: Attachment: ttf
      Metadata:
        filename        : BwSurcoDEMO-Black.otf
        mimetype        : application/x-truetype-font
  Stream #1:8: Attachment: ttf
      Metadata:
        filename        : BwSurcoDEMO-BlackItalic.otf
        mimetype        : application/x-truetype-font
  Stream #1:9: Attachment: ttf
      Metadata:
        filename        : BwSurcoDEMO-Bold.otf
        mimetype        : application/x-truetype-font
  Stream #1:10: Attachment: ttf
      Metadata:
        filename        : BwSurcoDEMO-BoldItalic.otf
        mimetype        : application/x-truetype-font
  Stream #1:11: Attachment: ttf
      Metadata:
        filename        : BwSurcoDEMO-Book.otf
        mimetype        : application/x-truetype-font
  Stream #1:12: Attachment: ttf
      Metadata:
        filename        : BwSurcoDEMO-BookItalic.otf
        mimetype        : application/x-truetype-font
  Stream #1:13: Attachment: ttf
      Metadata:
        filename        : BwSurcoDEMO-Light.otf
        mimetype        : application/x-truetype-font
  Stream #1:14: Attachment: ttf
      Metadata:
        filename        : BwSurcoDEMO-LightItalic.otf
        mimetype        : application/x-truetype-font
  Stream #1:15: Attachment: ttf
      Metadata:
        filename        : BwSurcoDEMO-Medium.otf
        mimetype        : application/x-truetype-font
  Stream #1:16: Attachment: ttf
      Metadata:
        filename        : BwSurcoDEMO-MediumItalic.otf
        mimetype        : application/x-truetype-font
  Stream #1:17: Attachment: ttf
      Metadata:
        filename        : BwSurcoDEMO-Regular.otf
        mimetype        : application/x-truetype-font
  Stream #1:18: Attachment: ttf
      Metadata:
        filename        : BwSurcoDEMO-RegularItalic.otf
        mimetype        : application/x-truetype-font
Stream mapping:
  Stream #0:0 (hevc) -> settb:default
  Stream #1:0 (h264) -> settb:default
  ssim:default -> Stream #0:0 (wrapped_avframe)
  Stream #0:1 -> #0:1 (aac (native) -> pcm_s16le (native))
Output #0, null, to 'pipe:':
  Metadata:
    encoder         : Lavf61.7.100
  Stream #0:0: Video: wrapped_avframe, yuv420p10le(tv, bt709, progressive), 1280x720 [SAR 1:1 DAR 16:9], q=2-31, 200 kb/s, 23.98 fps, 23.98 tbn
      Metadata:
        encoder         : Lavc61.19.100 wrapped_avframe
  Stream #0:1(rus): Audio: pcm_s16le, 48000 Hz, stereo, s16, 1536 kb/s (default)
      Metadata:
        title           : Ados Amikiri Anzen Hekomi Silv
        _STATISTICS_TAGS: BPS DURATION NUMBER_OF_FRAMES NUMBER_OF_BYTES
        BPS             : 194038
        DURATION        : 00:24:00.149000000
        NUMBER_OF_FRAMES: 67508
        NUMBER_OF_BYTES : 34930537
        _STATISTICS_WRITING_APP: mkvpropedit v66.0.0 ('Josie') 64-bit
        _STATISTICS_WRITING_DATE_UTC: 2025-06-17 12:22:54
        encoder         : Lavc61.19.100 pcm_s16le
frame=  421 fps=0.0 q=-0.0 size=N/A time=00:00:17.55 bitrate=N/A speed=34.8x    frame=  971 fps=944 q=-0.0 size=N/A time=00:00:40.49 bitrate=N/A speed=39.4x    frame= 1558 fps=1007 q=-0.0 size=N/A time=00:01:04.98 bitrate=N/A speed=  42x    frame= 2040 fps=989 q=-0.0 size=N/A time=00:01:25.08 bitrate=N/A speed=41.3x    frame= 2579 fps=1000 q=-0.0 size=N/A time=00:01:47.56 bitrate=N/A speed=41.7x    frame= 3052 fps=989 q=-0.0 size=N/A time=00:02:07.29 bitrate=N/A speed=41.3x    frame= 3500 fps=970 q=-0.0 size=N/A time=00:02:25.97 bitrate=N/A speed=40.4x    frame= 3955 fps=961 q=-0.0 size=N/A time=00:02:44.95 bitrate=N/A speed=40.1x    frame= 4359 fps=939 q=-0.0 size=N/A time=00:03:01.80 bitrate=N/A speed=39.2x    frame= 4762 fps=925 q=-0.0 size=N/A time=00:03:18.61 bitrate=N/A speed=38.6x    frame= 5123 fps=904 q=-0.0 size=N/A time=00:03:33.67 bitrate=N/A speed=37.7x    frame= 5534 fps=896 q=-0.0 size=N/A time=00:03:50.81 bitrate=N/A speed=37.4x    frame= 5959 fps=889 q=-0.0 size=N/A time=00:04:08.53 bitrate=N/A speed=37.1x    frame= 6477 fps=898 q=-0.0 size=N/A time=00:04:30.14 bitrate=N/A speed=37.5x    frame= 6903 fps=892 q=-0.0 size=N/A time=00:04:47.91 bitrate=N/A speed=37.2x    frame= 7366 fps=893 q=-0.0 size=N/A time=00:05:07.22 bitrate=N/A speed=37.3x    frame= 7537 fps=860 q=-0.0 size=N/A time=00:05:14.35 bitrate=N/A speed=35.9x    frame= 7761 fps=837 q=-0.0 size=N/A time=00:05:23.69 bitrate=N/A speed=34.9x    frame= 8023 fps=819 q=-0.0 size=N/A time=00:05:34.62 bitrate=N/A speed=34.2x    frame= 8244 fps=799 q=-0.0 size=N/A time=00:05:43.84 bitrate=N/A speed=33.3x    frame= 8450 fps=781 q=-0.0 size=N/A time=00:05:52.43 bitrate=N/A speed=32.6x    frame= 8603 fps=759 q=-0.0 size=N/A time=00:05:58.81 bitrate=N/A speed=31.7x    frame= 8758 fps=738 q=-0.0 size=N/A time=00:06:05.28 bitrate=N/A speed=30.8x    frame= 8959 fps=724 q=-0.0 size=N/A time=00:06:13.66 bitrate=N/A speed=30.2x    frame= 9238 fps=717 q=-0.0 size=N/A time=00:06:25.30 bitrate=N/A speed=29.9x    frame= 9754 fps=728 q=-0.0 size=N/A time=00:06:46.82 bitrate=N/A speed=30.4x    frame=10187 fps=732 q=-0.0 size=N/A time=00:07:04.88 bitrate=N/A speed=30.5x    frame=10728 fps=743 q=-0.0 size=N/A time=00:07:27.44 bitrate=N/A speed=  31x    frame=11281 fps=754 q=-0.0 size=N/A time=00:07:50.51 bitrate=N/A speed=31.4x    frame=11757 fps=760 q=-0.0 size=N/A time=00:08:10.36 bitrate=N/A speed=31.7x    frame=12310 fps=770 q=-0.0 size=N/A time=00:08:33.42 bitrate=N/A speed=32.1x    frame=12883 fps=781 q=-0.0 size=N/A time=00:08:57.32 bitrate=N/A speed=32.6x    frame=13341 fps=783 q=-0.0 size=N/A time=00:09:16.43 bitrate=N/A speed=32.7x    frame=13650 fps=778 q=-0.0 size=N/A time=00:09:29.31 bitrate=N/A speed=32.4x    frame=13940 fps=772 q=-0.0 size=N/A time=00:09:41.41 bitrate=N/A speed=32.2x    frame=14205 fps=765 q=-0.0 size=N/A time=00:09:52.46 bitrate=N/A speed=31.9x    frame=14552 fps=763 q=-0.0 size=N/A time=00:10:06.93 bitrate=N/A speed=31.8x    frame=14964 fps=763 q=-0.0 size=N/A time=00:10:24.12 bitrate=N/A speed=31.8x    frame=15485 fps=769 q=-0.0 size=N/A time=00:10:45.85 bitrate=N/A speed=32.1x    frame=15933 fps=772 q=-0.0 size=N/A time=00:11:04.53 bitrate=N/A speed=32.2x    frame=16435 fps=777 q=-0.0 size=N/A time=00:11:25.47 bitrate=N/A speed=32.4x    frame=16640 fps=768 q=-0.0 size=N/A time=00:11:34.02 bitrate=N/A speed=  32x    frame=16881 fps=761 q=-0.0 size=N/A time=00:11:44.07 bitrate=N/A speed=31.7x    frame=17259 fps=760 q=-0.0 size=N/A time=00:11:59.84 bitrate=N/A speed=31.7x    frame=17701 fps=763 q=-0.0 size=N/A time=00:12:18.27 bitrate=N/A speed=31.8x    frame=17993 fps=758 q=-0.0 size=N/A time=00:12:30.45 bitrate=N/A speed=31.6x    frame=18206 fps=751 q=-0.0 size=N/A time=00:12:39.34 bitrate=N/A speed=31.3x    frame=18510 fps=747 q=-0.0 size=N/A time=00:12:52.02 bitrate=N/A speed=31.2x    frame=18870 fps=747 q=-0.0 size=N/A time=00:13:07.03 bitrate=N/A speed=31.1x    frame=19144 fps=742 q=-0.0 size=N/A time=00:13:18.46 bitrate=N/A speed=  31x    frame=19435 fps=739 q=-0.0 size=N/A time=00:13:30.60 bitrate=N/A speed=30.8x    frame=19731 fps=735 q=-0.0 size=N/A time=00:13:42.94 bitrate=N/A speed=30.7x    frame=20001 fps=732 q=-0.0 size=N/A time=00:13:54.20 bitrate=N/A speed=30.5x    frame=20450 fps=734 q=-0.0 size=N/A time=00:14:12.93 bitrate=N/A speed=30.6x    frame=20797 fps=733 q=-0.0 size=N/A time=00:14:27.40 bitrate=N/A speed=30.6x    frame=21209 fps=734 q=-0.0 size=N/A time=00:14:44.59 bitrate=N/A speed=30.6x    frame=21647 fps=736 q=-0.0 size=N/A time=00:15:02.86 bitrate=N/A speed=30.7x    frame=22141 fps=740 q=-0.0 size=N/A time=00:15:23.46 bitrate=N/A speed=30.9x    frame=22580 fps=742 q=-0.0 size=N/A time=00:15:41.77 bitrate=N/A speed=30.9x    frame=23135 fps=748 q=-0.0 size=N/A time=00:16:04.92 bitrate=N/A speed=31.2x    frame=23558 fps=749 q=-0.0 size=N/A time=00:16:22.56 bitrate=N/A speed=31.2x    frame=23980 fps=750 q=-0.0 size=N/A time=00:16:40.16 bitrate=N/A speed=31.3x    frame=24338 fps=749 q=-0.0 size=N/A time=00:16:55.09 bitrate=N/A speed=31.2x    frame=24770 fps=750 q=-0.0 size=N/A time=00:17:13.11 bitrate=N/A speed=31.3x    frame=25138 fps=750 q=-0.0 size=N/A time=00:17:28.46 bitrate=N/A speed=31.3x    frame=25462 fps=748 q=-0.0 size=N/A time=00:17:41.97 bitrate=N/A speed=31.2x    frame=25817 fps=747 q=-0.0 size=N/A time=00:17:56.78 bitrate=N/A speed=31.2x    frame=26237 fps=748 q=-0.0 size=N/A time=00:18:14.30 bitrate=N/A speed=31.2x    frame=26635 fps=748 q=-0.0 size=N/A time=00:18:30.90 bitrate=N/A speed=31.2x    frame=27099 fps=750 q=-0.0 size=N/A time=00:18:50.25 bitrate=N/A speed=31.3x    frame=27570 fps=753 q=-0.0 size=N/A time=00:19:09.89 bitrate=N/A speed=31.4x    frame=28000 fps=754 q=-0.0 size=N/A time=00:19:27.83 bitrate=N/A speed=31.4x    frame=28480 fps=756 q=-0.0 size=N/A time=00:19:47.85 bitrate=N/A speed=31.5x    frame=28996 fps=760 q=-0.0 size=N/A time=00:20:09.37 bitrate=N/A speed=31.7x    frame=29524 fps=763 q=-0.0 size=N/A time=00:20:31.39 bitrate=N/A speed=31.8x    frame=30020 fps=766 q=-0.0 size=N/A time=00:20:52.08 bitrate=N/A speed=31.9x    frame=30257 fps=762 q=-0.0 size=N/A time=00:21:01.96 bitrate=N/A speed=31.8x    frame=30644 fps=762 q=-0.0 size=N/A time=00:21:18.11 bitrate=N/A speed=31.8x    frame=30966 fps=760 q=-0.0 size=N/A time=00:21:31.54 bitrate=N/A speed=31.7x    frame=31269 fps=758 q=-0.0 size=N/A time=00:21:44.17 bitrate=N/A speed=31.6x    frame=31580 fps=756 q=-0.0 size=N/A time=00:21:57.14 bitrate=N/A speed=31.5x    frame=31833 fps=752 q=-0.0 size=N/A time=00:22:07.70 bitrate=N/A speed=31.4x    frame=32098 fps=749 q=-0.0 size=N/A time=00:22:18.75 bitrate=N/A speed=31.3x    frame=32390 fps=747 q=-0.0 size=N/A time=00:22:30.93 bitrate=N/A speed=31.2x    frame=32671 fps=745 q=-0.0 size=N/A time=00:22:42.65 bitrate=N/A speed=31.1x    frame=32925 fps=742 q=-0.0 size=N/A time=00:22:53.24 bitrate=N/A speed=30.9x    frame=33242 fps=741 q=-0.0 size=N/A time=00:23:06.46 bitrate=N/A speed=30.9x    frame=33638 fps=741 q=-0.0 size=N/A time=00:23:22.98 bitrate=N/A speed=30.9x    frame=34188 fps=745 q=-0.0 size=N/A time=00:23:45.92 bitrate=N/A speed=31.1x    [Parsed_ssim_10 @ 0000021090c04f40] SSIM Y:0.982966 (17.686731) U:0.985241 (18.309537) V:0.984117 (17.990557) All:0.983537 (17.834837)
[out#0/null @ 0000021090c4ef00] video:14836KiB audio:270032KiB subtitle:0KiB other streams:0KiB global headers:0KiB muxing overhead: unknown
frame=34527 fps=748 q=-0.0 Lsize=N/A time=00:24:00.06 bitrate=N/A speed=31.2x    
